<svg width="24" height="24" viewBox="0 0 24 24" fill="none" xmlns="http://www.w3.org/2000/svg">
<path fill-rule="evenodd" clip-rule="evenodd" d="M16.3214 6.18986C16.8887 5.97828 17.5051 5.94366 18.0919 6.08928L20.0353 6.57072C21.3538 6.89801 22.2804 8.08216 22.2804 9.44084C22.2802 10.6854 21.5003 11.7972 20.3302 12.2211L16.3898 13.6488L14.6154 16.1987C14.143 16.8774 13.472 17.3935 12.6945 17.6752L12.0197 17.9194C10.7852 18.3665 9.46864 17.5231 9.34878 16.224L7.01479 17.1156C5.44428 17.7154 3.68737 16.9072 3.12026 15.3246L3.04604 15.1166C2.77912 14.371 2.81762 13.5496 3.15346 12.8324L3.15932 12.8188L1.173 9.89103C0.999787 9.63579 0.95395 9.31437 1.04897 9.02092C1.14412 8.72745 1.36929 8.49421 1.65932 8.38908L2.69253 8.01506C3.80397 7.61247 5.03677 7.72241 6.05971 8.31486L7.41323 9.09806C7.66986 9.24658 7.98034 9.27442 8.25991 9.17326C10.1928 8.47305 14.7122 6.79011 16.3214 6.18986ZM17.6105 8.02971C17.4145 7.98106 17.2093 7.99264 17.0207 8.06291C15.4153 8.66171 10.8852 10.35 8.94155 11.0541C8.10674 11.3565 7.17977 11.2743 6.41128 10.8295L5.05678 10.0453C4.60037 9.78104 4.06065 9.70867 3.55483 9.83928L5.13393 12.1664C5.33176 12.4582 5.36163 12.8335 5.21206 13.1528L4.96499 13.6811C4.85317 13.92 4.83996 14.1934 4.92886 14.4418L5.00307 14.6498L5.04311 14.7455C5.265 15.209 5.81016 15.4346 6.30093 15.2475L9.8937 13.8754L10.006 13.8393C10.2713 13.7725 10.5547 13.8171 10.7882 13.9662C11.0551 14.1367 11.2262 14.4238 11.2482 14.7397L11.338 16.0395L12.0128 15.7953C12.4016 15.6545 12.7375 15.3955 12.9738 15.0561L14.9289 12.2455C15.0469 12.0758 15.215 11.9468 15.4093 11.8764L19.6496 10.3403C20.0281 10.203 20.2802 9.84333 20.2804 9.44084C20.2804 9.00129 19.9805 8.6181 19.5539 8.51213L17.6105 8.02971Z" fill="black" style="fill:black;fill-opacity:1;"/>
</svg>
