<svg width="24" height="24" viewBox="0 0 24 24" fill="none" xmlns="http://www.w3.org/2000/svg">
<path d="M20 13.004C20.5299 13.004 20.9619 13.4163 20.9961 13.9376C20.9972 13.9529 20.9987 13.9682 20.999 13.9835C20.9992 13.9903 21 13.9972 21 14.004C21 14.0109 20.9992 14.0177 20.999 14.0245C20.9987 14.0431 20.9974 14.0616 20.9961 14.0802C20.9951 14.0936 20.9937 14.1069 20.9922 14.1202C20.9713 14.3055 20.8998 14.4862 20.7754 14.6388L20.707 14.715L16.707 18.715C16.3165 19.1055 15.6835 19.1055 15.293 18.715C14.9025 18.3244 14.9025 17.6914 15.293 17.3009L17.5898 15.004H8C7.44772 15.004 7 14.5563 7 14.004C7.00001 13.4517 7.44772 13.004 8 13.004H20Z" fill="black" style="fill:black;fill-opacity:1;"/>
<path d="M7.29297 5.29308C7.68349 4.90255 8.31651 4.90255 8.70703 5.29308C9.09752 5.6836 9.09754 6.31663 8.70703 6.70714L6.41016 9.00401H16C16.5523 9.00401 17 9.45174 17 10.004C17 10.5563 16.5523 11.004 16 11.004H4C3.46971 11.004 3.03665 10.5912 3.00293 10.0694C3.0019 10.0545 3.00134 10.0395 3.00098 10.0245C3.00084 10.0177 3 10.0109 3 10.004C3 9.99716 3.00084 9.99033 3.00098 9.98351C3.0013 9.96461 3.00155 9.94572 3.00293 9.92687C3.00395 9.91344 3.00529 9.9001 3.00684 9.88683C3.02789 9.70181 3.10041 9.52154 3.22461 9.36925L3.29297 9.29308L7.29297 5.29308Z" fill="black" style="fill:black;fill-opacity:1;"/>
</svg>
