<svg width="24" height="24" viewBox="0 0 24 24" fill="none" xmlns="http://www.w3.org/2000/svg">
<path d="M12.0285 3C16.999 3.00015 21.0285 7.02953 21.0285 12C21.0285 16.9705 16.999 20.9998 12.0285 21C8.10837 21 4.77632 18.494 3.54122 15L5.42599 14.333C6.38743 17.053 8.98225 19 12.0285 19C15.8944 18.9998 19.0285 15.8659 19.0285 12C19.0285 8.1341 15.8944 5.00015 12.0285 5C10.0552 5 8.62767 5.68031 7.24435 7H9.00021L9.10275 7.00488C9.60673 7.05635 10.0002 7.48242 10.0002 8C10.0002 8.51758 9.60673 8.94365 9.10275 8.99512L9.00021 9H6.00021C4.89564 9 4.00021 8.10456 4.00021 7V4C4.00021 3.44772 4.44792 3 5.00021 3C5.55236 3.00016 6.00021 3.44782 6.00021 4V5.42676C7.62291 3.92443 9.47588 3 12.0285 3Z" fill="black" style="fill:black;fill-opacity:1;"/>
<path d="M4.1506 13.7236C4.67102 13.5399 5.24179 13.8128 5.42599 14.333L3.54122 15C3.35717 14.4793 3.62988 13.9077 4.1506 13.7236Z" fill="black" style="fill:black;fill-opacity:1;"/>
</svg>
