<svg width="24" height="24" viewBox="0 0 24 24" fill="none" xmlns="http://www.w3.org/2000/svg">
<path fill-rule="evenodd" clip-rule="evenodd" d="M10.4248 2.17755C11.5023 1.71577 12.7335 1.74834 13.7891 2.27618L20.7637 5.76446L20.9023 5.83966C21.5793 6.23992 22 6.9704 22 7.76446C21.9997 8.91943 21.1238 9.86915 20 9.98712V16.5457C20.717 16.9876 21.2783 17.6734 21.5576 18.5115L21.6191 18.741C21.8506 19.8887 20.9736 20.9998 19.7637 20.9998H4.23633C2.94586 20.9998 2.03437 19.7359 2.44238 18.5115L2.5459 18.2361C2.84864 17.523 3.36318 16.9382 4 16.5457V9.98712C2.87624 9.86916 2.00026 8.91943 2 7.76446C2 6.91754 2.47882 6.14325 3.23633 5.76446L10.2109 2.27618L10.4248 2.17755ZM5.92676 17.9998C5.25877 17.9998 4.66023 18.397 4.39551 18.9998H19.6045C19.3577 18.4377 18.8211 18.0548 18.208 18.0057L18.0732 17.9998H5.92676ZM6 15.9998H8V9.99981H6V15.9998ZM10 15.9998H14V9.99981H10V15.9998ZM16 15.9998H18V9.99981H16V15.9998ZM12.8945 4.06524C12.402 3.81894 11.833 3.78875 11.3213 3.97345L11.1055 4.06524L4.13086 7.55255C4.05093 7.59255 4 7.67506 4 7.76446C4.00027 7.89459 4.10611 7.99981 4.23633 7.99981H19.7637C19.8939 7.99981 19.9997 7.89458 20 7.76446C20 7.69755 19.9715 7.63466 19.9238 7.59063L19.8691 7.55255L12.8945 4.06524Z" fill="black" style="fill:black;fill-opacity:1;"/>
</svg>
