<svg width="24" height="24" viewBox="0 0 24 24" fill="none" xmlns="http://www.w3.org/2000/svg">
<path fill-rule="evenodd" clip-rule="evenodd" d="M17.2383 3H6.75321C4.68063 3 3 4.68075 3 6.75345V17.2465C3 19.3192 4.68063 21 6.75321 21H17.2463C19.3189 21 21 19.3192 21 17.2465V6.75345C20.9915 4.68075 19.3109 3 17.2383 3ZM17.2308 10.6248C15.1639 10.6248 13.4922 12.2893 13.4922 14.3296V16.3938H10.3386V14.3296C10.3386 12.6813 10.9312 11.1635 11.9113 9.9804C13.1794 8.46255 15.0897 7.5 17.2308 7.5V10.6248ZM6.6 7.50769V10.6248C7.8681 10.6248 8.98815 11.253 9.6717 12.2075C9.97635 11.1225 10.52 10.1271 11.2444 9.28654C10.0173 8.18494 8.38695 7.50769 6.6 7.50769Z" fill="black" style="fill:black;fill-opacity:1;"/>
</svg>
