<svg width="24" height="24" viewBox="0 0 24 24" fill="none" xmlns="http://www.w3.org/2000/svg">
<path fill-rule="evenodd" clip-rule="evenodd" d="M12.5 4C13.759 4 14.9448 4.5925 15.7002 5.59961L17.3418 7.78906C17.4895 7.98567 17.7043 8.1207 17.9453 8.16895L19.7842 8.53711C21.6538 8.91101 22.9998 10.5525 23 12.459V15C23 16.6569 21.6569 18 20 18C19.5101 19.1743 18.3519 20 17 20C15.6482 20 14.4899 19.1743 14 18H10C9.51014 19.1743 8.35185 20 7 20C5.64815 20 4.48986 19.1743 4 18C2.34315 18 1 16.6569 1 15V11.6055C1.00004 10.2681 1.66848 9.01919 2.78125 8.27734L4.1123 7.38965C4.22216 7.31641 4.31641 7.22216 4.38965 7.1123L5.27734 5.78125C6.01919 4.66847 7.26809 4.00003 8.60547 4H12.5ZM7 15.5C6.30964 15.5 5.75 16.0596 5.75 16.75C5.75 17.4404 6.30964 18 7 18C7.69036 18 8.25 17.4404 8.25 16.75C8.25 16.0596 7.69036 15.5 7 15.5ZM17 15.5C16.3096 15.5 15.75 16.0596 15.75 16.75C15.75 17.4404 16.3096 18 17 18C17.6904 18 18.25 17.4404 18.25 16.75C18.25 16.0596 17.6904 15.5 17 15.5ZM8.60547 6C7.93679 6.00003 7.31233 6.33425 6.94141 6.89062L6.05371 8.22168C5.83401 8.55123 5.55123 8.83401 5.22168 9.05371L3.89062 9.94141C3.33427 10.3123 3.00004 10.9368 3 11.6055V15C3 15.498 3.36434 15.909 3.84082 15.9854C4.18472 14.5594 5.46848 13.5 7 13.5C8.53672 13.5 9.82345 14.5668 10.1621 16H13.8379C14.1765 14.5668 15.4633 13.5 17 13.5C18.5314 13.5 19.8142 14.5595 20.1582 15.9854C20.6352 15.9094 21 15.4984 21 15V12.459C20.9998 11.506 20.3271 10.6851 19.3926 10.498L17.5527 10.1309C16.8292 9.98605 16.184 9.57951 15.7412 8.98926L14.0996 6.7998C13.7218 6.29635 13.1294 6 12.5 6H8.60547Z" fill="black" style="fill:black;fill-opacity:1;"/>
</svg>
