<svg width="24" height="24" viewBox="0 0 24 24" fill="none" xmlns="http://www.w3.org/2000/svg">
<path d="M10 13C10.5523 13 11 13.4477 11 14C11 14.5523 10.5523 15 10 15H7C6.44772 15 6 14.5523 6 14C6 13.4477 6.44772 13 7 13H10Z" fill="black" style="fill:black;fill-opacity:1;"/>
<path fill-rule="evenodd" clip-rule="evenodd" d="M18 4C20.2092 4 22 5.79088 22 8V16C22 18.2092 20.2092 20 18 20H6C3.79088 20 2 18.2092 2 16V8C2 5.79087 3.79087 4 6 4H18ZM4 16C4 17.1046 4.89542 18 6 18H18C19.1046 18 20 17.1046 20 16V11H4V16ZM6 6C4.89543 6 4 6.89543 4 8V9H20V8C20 6.89542 19.1046 6 18 6H6Z" fill="black" style="fill:black;fill-opacity:1;"/>
</svg>
