<svg width="24" height="24" viewBox="0 0 24 24" fill="none" xmlns="http://www.w3.org/2000/svg">
<path d="M3 4.00012C3.55228 4.00012 4 4.44784 4 5.00012V18.0001H21C21.5523 18.0001 22 18.4478 22 19.0001C22 19.5524 21.5523 20.0001 21 20.0001H3C2.44772 20.0001 2 19.5524 2 19.0001V5.00012C2 4.44784 2.44772 4.00012 3 4.00012Z" fill="black" style="fill:black;fill-opacity:1;"/>
<path d="M19.1025 6.005C19.6067 6.05634 20 6.48245 20 7.00012V11.0001C20 11.5524 19.5523 12.0001 19 12.0001C18.4477 12.0001 18 11.5524 18 11.0001V9.41418L13.707 13.7072C13.3165 14.0977 12.6835 14.0977 12.293 13.7072L11 12.4142L7.70703 15.7072C7.31651 16.0977 6.68349 16.0977 6.29297 15.7072C5.90244 15.3166 5.90244 14.6836 6.29297 14.2931L10.293 10.2931L10.3691 10.2247C10.7619 9.90438 11.3409 9.92697 11.707 10.2931L13 11.5861L16.5859 8.00012H15C14.4477 8.00012 14 7.55241 14 7.00012C14 6.44784 14.4477 6.00012 15 6.00012H19L19.1025 6.005Z" fill="black" style="fill:black;fill-opacity:1;"/>
</svg>
