<svg width="24" height="24" viewBox="0 0 24 24" fill="none" xmlns="http://www.w3.org/2000/svg">
<path d="M14.293 8.29297C14.6835 7.90244 15.3165 7.90244 15.707 8.29297C16.0976 8.68349 16.0976 9.31651 15.707 9.70703L13.4141 12L15.707 14.293L15.7754 14.3691C16.0957 14.7619 16.0731 15.3409 15.707 15.707C15.3409 16.0731 14.7619 16.0957 14.3691 15.7754L14.293 15.707L12 13.4141L9.70703 15.707C9.31651 16.0976 8.68349 16.0976 8.29297 15.707C7.90244 15.3165 7.90244 14.6835 8.29297 14.293L10.5859 12L8.29297 9.70703L8.22461 9.63086C7.90426 9.23809 7.92685 8.65908 8.29297 8.29297C8.65908 7.92685 9.23809 7.90426 9.63086 8.22461L9.70703 8.29297L12 10.5859L14.293 8.29297Z" fill="black" style="fill:black;fill-opacity:1;"/>
<path fill-rule="evenodd" clip-rule="evenodd" d="M12 2C17.5229 2 22 6.47716 22 12C22 17.5229 17.5229 22 12 22C6.47716 22 2 17.5229 2 12C2 6.47716 6.47716 2 12 2ZM12 4C7.58172 4 4 7.58172 4 12C4 16.4183 7.58172 20 12 20C16.4183 20 20 16.4183 20 12C20 7.58172 16.4183 4 12 4Z" fill="black" style="fill:black;fill-opacity:1;"/>
</svg>
