<svg width="24" height="24" viewBox="0 0 24 24" fill="none" xmlns="http://www.w3.org/2000/svg">
<path d="M12 7C12.5523 7 13 7.44772 13 8V11.5859L15.207 13.793L15.2754 13.8691C15.5957 14.2619 15.5731 14.8409 15.207 15.207C14.8409 15.5731 14.2619 15.5957 13.8691 15.2754L13.793 15.207L11.293 12.707C11.1054 12.5195 11 12.2652 11 12V8C11 7.44772 11.4477 7 12 7Z" fill="black" style="fill:black;fill-opacity:1;"/>
<path fill-rule="evenodd" clip-rule="evenodd" d="M12 2C17.5229 2 22 6.47716 22 12C22 17.5229 17.5229 22 12 22C6.47716 22 2 17.5229 2 12C2 6.47716 6.47716 2 12 2ZM12 4C7.58172 4 4 7.58172 4 12C4 16.4183 7.58172 20 12 20C16.4183 20 20 16.4183 20 12C20 7.58172 16.4183 4 12 4Z" fill="black" style="fill:black;fill-opacity:1;"/>
</svg>
