<svg width="28" height="28" viewBox="0 0 28 28" fill="none" xmlns="http://www.w3.org/2000/svg">
    <path d="M1.5 16.4095V13.5004C1.5 12.0276 2.69391 10.8337 4.16667 10.8337H18.1667C19.6395 10.8337 20.8333 12.0276 20.8333 13.5004V16.4095C20.8333 21.7984 16.5055 26.1671 11.1667 26.1671C5.82792 26.1671 1.5 21.7984 1.5 16.4095Z" stroke="#29320C" stroke-width="3" stroke-linecap="round" stroke-linejoin="round"/>
    <path d="M18.1665 10.8337H22.8332C24.6741 10.8337 26.1665 12.4753 26.1665 14.5004C26.1665 16.5255 24.6741 18.1671 22.8332 18.1671H20.8332" stroke="#29320C" stroke-width="3" stroke-linecap="round" stroke-linejoin="round"/>
    <path d="M8.6065 1.50049C8.01984 3.10999 8.01984 4.55765 8.6065 6.16715" stroke="#29320C" stroke-width="3" stroke-linecap="round" stroke-linejoin="round"/>
    <path d="M13.94 1.50049C13.3533 3.10999 13.3533 4.55765 13.94 6.16715" stroke="#29320C" stroke-width="3" stroke-linecap="round" stroke-linejoin="round"/>
</svg>
