<svg width="24" height="24" viewBox="0 0 24 24" fill="none" xmlns="http://www.w3.org/2000/svg">
<path d="M11.5 15C12.3284 15 13 15.6716 13 16.5C13 17.3284 12.3284 18 11.5 18C10.6716 18 10 17.3284 10 16.5C10 15.6716 10.6716 15 11.5 15Z" fill="black" style="fill:black;fill-opacity:1;"/>
<path d="M7 13C7.55228 13 8 13.4477 8 14C8 14.5523 7.55228 15 7 15C6.44772 15 6 14.5523 6 14C6 13.4477 6.44772 13 7 13Z" fill="black" style="fill:black;fill-opacity:1;"/>
<path d="M17 13C17.5523 13 18 13.4477 18 14C18 14.5523 17.5523 15 17 15C16.4477 15 16 14.5523 16 14C16 13.4477 16.4477 13 17 13Z" fill="black" style="fill:black;fill-opacity:1;"/>
<path d="M12.5 10C13.3284 10 14 10.6716 14 11.5C14 12.3284 13.3284 13 12.5 13C11.6716 13 11 12.3284 11 11.5C11 10.6716 11.6716 10 12.5 10Z" fill="black" style="fill:black;fill-opacity:1;"/>
<path d="M8.5 7C9.32843 7 10 7.67157 10 8.5C10 9.32843 9.32843 10 8.5 10C7.67157 10 7 9.32843 7 8.5C7 7.67157 7.67157 7 8.5 7Z" fill="black" style="fill:black;fill-opacity:1;"/>
<path fill-rule="evenodd" clip-rule="evenodd" d="M12 2C12.3853 2 12.7659 2.02186 13.1406 2.06445C13.4062 2.09465 13.6483 2.23027 13.8135 2.44043C13.9785 2.65051 14.0528 2.91753 14.0195 3.18262C14.0065 3.28602 14 3.39219 14 3.5C14 4.76634 14.9428 5.81402 16.1641 5.97754C16.6109 6.03746 16.9625 6.38912 17.0225 6.83594C17.186 8.05731 18.2337 9 19.5 9C19.8094 9 20.1033 8.94385 20.374 8.84277C20.6402 8.74338 20.9368 8.76269 21.1885 8.89453C21.4399 9.02641 21.6235 9.25894 21.6934 9.53418C21.8937 10.324 22 11.1503 22 12C22 17.5228 17.5228 22 12 22C6.47715 22 2 17.5228 2 12C2 6.47715 6.47715 2 12 2ZM12 4C7.58172 4 4 7.58172 4 12C4 16.4183 7.58172 20 12 20C16.4183 20 20 16.4183 20 12C20 11.6539 19.978 11.3134 19.9355 10.9795C19.7921 10.9933 19.6468 11 19.5 11C17.4689 11 15.7536 9.65475 15.1934 7.80664C13.4991 7.29303 12.2271 5.8086 12.0273 4C12.0182 3.99997 12.0091 4 12 4Z" fill="black" style="fill:black;fill-opacity:1;"/>
</svg>
