<svg width="24" height="24" viewBox="0 0 24 24" fill="none" xmlns="http://www.w3.org/2000/svg">
<path d="M20 14C20.5523 14 21 14.4477 21 15V17C21 19.2092 19.2092 21 17 21H7C4.79088 21 3 19.2092 3 17V15C3 14.4477 3.44772 14 4 14C4.55228 14 5 14.4477 5 15V17C5 18.1046 5.89542 19 7 19H17C18.1046 19 19 18.1046 19 17V15C19 14.4477 19.4477 14 20 14Z" fill="black" style="fill:black;fill-opacity:1;"/>
<path d="M12 3C12.5523 3 13 3.44772 13 4V12.0859L14.793 10.293C15.1835 9.90244 15.8165 9.90244 16.207 10.293C16.5976 10.6835 16.5976 11.3165 16.207 11.707L12.707 15.207C12.3165 15.5976 11.6835 15.5976 11.293 15.207L7.79297 11.707L7.72461 11.6309C7.40426 11.2381 7.42685 10.6591 7.79297 10.293C8.15908 9.92685 8.73809 9.90426 9.13086 10.2246L9.20703 10.293L11 12.0859V4C11 3.44772 11.4477 3 12 3Z" fill="black" style="fill:black;fill-opacity:1;"/>
</svg>
