<svg width="20" height="20" viewBox="0 0 20 20" fill="none" xmlns="http://www.w3.org/2000/svg">
    <path fill-rule="evenodd" clip-rule="evenodd" d="M9.99984 6.66675C11.8408 6.66675 13.3332 8.15909 13.3332 10.0001C13.3332 11.8411 11.8408 13.3334 9.99984 13.3334C8.15885 13.3334 6.6665 11.8411 6.6665 10.0001C6.6665 8.15909 8.15885 6.66675 9.99984 6.66675ZM9.99984 8.33341C9.07932 8.33341 8.33317 9.07957 8.33317 10.0001C8.33317 10.9206 9.07932 11.6667 9.99984 11.6667C10.9203 11.6667 11.6665 10.9206 11.6665 10.0001C11.6665 9.07957 10.9203 8.33341 9.99984 8.33341Z" fill="black"/>
    <path fill-rule="evenodd" clip-rule="evenodd" d="M9.99984 1.66675C10.7471 1.66675 11.4449 2.04038 11.8594 2.66203L12.1735 3.13241L12.2264 3.20646C12.5059 3.56282 12.9688 3.72863 13.4154 3.62557L13.7246 3.55477L13.8678 3.52629C14.5857 3.40845 15.3203 3.64246 15.8389 4.16105C16.3574 4.67963 16.5914 5.41418 16.4736 6.13208L16.4451 6.27531L16.3743 6.58455C16.2713 7.03117 16.4371 7.49404 16.7935 7.77352L16.8675 7.82642L17.3379 8.14054L17.4518 8.22192C18.0049 8.64282 18.3332 9.29962 18.3332 10.0001C18.3332 10.7005 18.0049 11.3573 17.4518 11.7782L17.3379 11.8596L16.8675 12.1737C16.4608 12.4449 16.2644 12.9392 16.3743 13.4156L16.4451 13.7249L16.4736 13.8681C16.5915 14.586 16.3574 15.3205 15.8389 15.8391C15.3203 16.3577 14.5857 16.5917 13.8678 16.4739L13.7246 16.4454L13.4154 16.3746C12.9687 16.2715 12.5059 16.4373 12.2264 16.7937L12.1735 16.8678L11.8594 17.3381C11.4449 17.9598 10.7471 18.3334 9.99984 18.3334C9.29938 18.3334 8.64257 18.0052 8.22168 17.4521L8.1403 17.3381L7.82617 16.8678C7.57197 16.4864 7.12171 16.29 6.67383 16.3575L6.58431 16.3746L6.27506 16.4454C5.5129 16.6212 4.71388 16.3922 4.16081 15.8391C3.60772 15.286 3.37864 14.487 3.55452 13.7249L3.62533 13.4156L3.64242 13.3261C3.70548 12.908 3.53885 12.4875 3.20622 12.2266L3.13216 12.1737L2.66178 11.8596C2.04012 11.4452 1.6665 10.7473 1.6665 10.0001C1.6665 9.25284 2.04012 8.555 2.66178 8.14054L3.13216 7.82642L3.20622 7.77352C3.53885 7.51263 3.70548 7.09211 3.64242 6.67407L3.62533 6.58455L3.55452 6.27531C3.37864 5.51315 3.60771 4.71415 4.16081 4.16105C4.7139 3.60796 5.51291 3.37889 6.27506 3.55477L6.58431 3.62557L6.67383 3.64266C7.12169 3.71022 7.57196 3.51374 7.82617 3.13241L8.1403 2.66203L8.22168 2.5481C8.64257 1.99496 9.29938 1.66675 9.99984 1.66675ZM9.99984 3.33341C9.83363 3.33341 9.67729 3.40627 9.57015 3.53035L9.52702 3.58651L9.21289 4.05607L9.2137 4.05688C8.59907 4.97887 7.50917 5.45446 6.42643 5.29142L6.20996 5.24992L5.8999 5.1783C5.69774 5.13172 5.4859 5.19273 5.33919 5.33944C5.19249 5.48614 5.13148 5.69797 5.17806 5.90015L5.24967 6.2102L5.29118 6.42668C5.45421 7.50941 4.97862 8.59932 4.05664 9.21395L4.05583 9.21313L3.58626 9.52726C3.42819 9.63264 3.33317 9.81016 3.33317 10.0001C3.33317 10.19 3.42819 10.3675 3.58626 10.4729L4.05583 10.7862C4.97781 11.4008 5.45422 12.4907 5.29118 13.5735L5.24967 13.79L5.17806 14.1C5.13146 14.3022 5.19248 14.514 5.33919 14.6607C5.48591 14.8074 5.69774 14.8684 5.8999 14.8219L6.20996 14.7502L6.42643 14.7087C7.50915 14.5457 8.59906 15.0213 9.2137 15.9433L9.52702 16.4137L9.57015 16.4698C9.67728 16.5939 9.83362 16.6667 9.99984 16.6667C10.1898 16.6667 10.3673 16.5717 10.4727 16.4137L10.786 15.9433L10.9154 15.7642C11.5912 14.9027 12.71 14.5012 13.7897 14.7502L14.0998 14.8219L14.1755 14.8341C14.3536 14.8518 14.532 14.7892 14.6605 14.6607C14.789 14.5322 14.8515 14.3538 14.8338 14.1757L14.8216 14.1L14.75 13.79C14.501 12.7103 14.9025 11.5915 15.764 10.9156L15.943 10.7862L16.4134 10.4729L16.4696 10.4298C16.5936 10.3226 16.6665 10.1663 16.6665 10.0001C16.6665 9.83387 16.5936 9.67753 16.4696 9.57039L16.4134 9.52726L15.943 9.21313C14.9595 8.55748 14.4844 7.36192 14.75 6.2102L14.8216 5.90015L14.8338 5.82446C14.8515 5.64632 14.789 5.46793 14.6605 5.33944C14.532 5.21095 14.3536 5.14837 14.1755 5.1661L14.0998 5.1783L13.7897 5.24992C12.638 5.51559 11.4416 5.04039 10.786 4.05688L10.4727 3.58651C10.3673 3.42844 10.1898 3.33341 9.99984 3.33341Z" fill="black"/>
</svg>
