<svg width="24" height="24" viewBox="0 0 24 24" fill="none" xmlns="http://www.w3.org/2000/svg">
<path fill-rule="evenodd" clip-rule="evenodd" d="M12 8C14.2092 8 16 9.79082 16 12C16 14.2092 14.2092 16 12 16C9.79082 16 8 14.2092 8 12C8 9.79082 9.79082 8 12 8ZM12 10C10.8954 10 10 10.8954 10 12C10 13.1046 10.8954 14 12 14C13.1046 14 14 13.1046 14 12C14 10.8954 13.1046 10 12 10Z" fill="black" style="fill:black;fill-opacity:1;"/>
<path fill-rule="evenodd" clip-rule="evenodd" d="M12 2C12.8967 2 13.7341 2.44835 14.2314 3.19434L14.6084 3.75879L14.6719 3.84766C15.0073 4.27528 15.5627 4.47425 16.0986 4.35059L16.4697 4.26562L16.6416 4.23145C17.5031 4.09004 18.3845 4.37085 19.0068 4.99316C19.6291 5.61546 19.9099 6.49691 19.7686 7.3584L19.7344 7.53027L19.6494 7.90137C19.5258 8.4373 19.7247 8.99274 20.1523 9.32812L20.2412 9.3916L20.8057 9.76855L20.9424 9.86621C21.6061 10.3713 22 11.1595 22 12C22 12.8405 21.6061 13.6287 20.9424 14.1338L20.8057 14.2314L20.2412 14.6084C19.7531 14.9338 19.5175 15.527 19.6494 16.0986L19.7344 16.4697L19.7686 16.6416C19.9099 17.5031 19.6291 18.3845 19.0068 19.0068C18.3845 19.6291 17.5031 19.9099 16.6416 19.7686L16.4697 19.7344L16.0986 19.6494C15.5627 19.5258 15.0073 19.7247 14.6719 20.1523L14.6084 20.2412L14.2314 20.8057C13.7341 21.5516 12.8967 22 12 22C11.1595 22 10.3713 21.6061 9.86621 20.9424L9.76855 20.8057L9.3916 20.2412C9.08656 19.7836 8.54624 19.5479 8.00879 19.6289L7.90137 19.6494L7.53027 19.7344C6.61567 19.9454 5.65685 19.6705 4.99316 19.0068C4.32945 18.3431 4.05456 17.3843 4.26562 16.4697L4.35059 16.0986L4.37109 15.9912C4.44677 15.4896 4.24682 14.9849 3.84766 14.6719L3.75879 14.6084L3.19434 14.2314C2.44834 13.7341 2 12.8967 2 12C2 11.1033 2.44834 10.2659 3.19434 9.76855L3.75879 9.3916L3.84766 9.32812C4.24681 9.01506 4.44677 8.51043 4.37109 8.00879L4.35059 7.90137L4.26562 7.53027C4.05457 6.61568 4.32945 5.65688 4.99316 4.99316C5.65688 4.32945 6.61569 4.05457 7.53027 4.26562L7.90137 4.35059L8.00879 4.37109C8.54622 4.45217 9.08654 4.21639 9.3916 3.75879L9.76855 3.19434L9.86621 3.05762C10.3713 2.39385 11.1595 2 12 2ZM12 4C11.8006 4 11.6129 4.08742 11.4844 4.23633L11.4326 4.30371L11.0557 4.86719L11.0566 4.86816C10.3191 5.97454 9.01119 6.54525 7.71191 6.34961L7.45215 6.2998L7.08008 6.21387C6.83748 6.15797 6.58327 6.23118 6.40723 6.40723C6.23118 6.58327 6.15797 6.83747 6.21387 7.08008L6.2998 7.45215L6.34961 7.71191C6.54525 9.01119 5.97454 10.3191 4.86816 11.0566L4.86719 11.0557L4.30371 11.4326C4.11403 11.5591 4 11.7721 4 12C4 12.2279 4.11403 12.4409 4.30371 12.5674L4.86719 12.9434C5.97357 13.6809 6.54526 14.9888 6.34961 16.2881L6.2998 16.5479L6.21387 16.9199C6.15795 17.1625 6.23117 17.4167 6.40723 17.5928C6.58329 17.7688 6.83749 17.842 7.08008 17.7861L7.45215 17.7002L7.71191 17.6504C9.01118 17.4548 10.3191 18.0254 11.0566 19.1318L11.4326 19.6963L11.4844 19.7637C11.6129 19.9126 11.8005 20 12 20C12.2279 20 12.4409 19.8859 12.5674 19.6963L12.9434 19.1318L13.0986 18.917C13.9097 17.8832 15.2522 17.4014 16.5479 17.7002L16.9199 17.7861L17.0107 17.8008C17.2245 17.822 17.4386 17.747 17.5928 17.5928C17.747 17.4386 17.822 17.2245 17.8008 17.0107L17.7861 16.9199L17.7002 16.5479C17.4014 15.2522 17.8832 13.9097 18.917 13.0986L19.1318 12.9434L19.6963 12.5674L19.7637 12.5156C19.9126 12.3871 20 12.1995 20 12C20 11.8005 19.9126 11.6129 19.7637 11.4844L19.6963 11.4326L19.1318 11.0557C17.9516 10.2689 17.3814 8.83421 17.7002 7.45215L17.7861 7.08008L17.8008 6.98926C17.822 6.77548 17.747 6.56142 17.5928 6.40723C17.4386 6.25304 17.2245 6.17794 17.0107 6.19922L16.9199 6.21387L16.5479 6.2998C15.1657 6.61862 13.7301 6.04837 12.9434 4.86816L12.5674 4.30371C12.4409 4.11403 12.2279 4 12 4Z" fill="black" style="fill:black;fill-opacity:1;"/>
</svg>
