<svg width="24" height="24" viewBox="0 0 24 24" fill="none" xmlns="http://www.w3.org/2000/svg">
<path fill-rule="evenodd" clip-rule="evenodd" d="M15.333 2C16.8058 2 18 3.19421 18 4.66699C17.9999 5.52624 17.7488 6.32642 17.3174 7H18C19.6569 7 21 8.34315 21 10C21 10.889 20.6122 11.6859 20 12.2344V17C20 19.2092 18.2092 21 16 21H8C5.79088 21 4 19.2092 4 17V12.2344C3.38776 11.6859 3 10.889 3 10C3 8.34315 4.34315 7 6 7H6.68262C6.25121 6.32642 6.00006 5.52624 6 4.66699C6 3.19423 7.19423 2 8.66699 2C10.0072 2.0001 11.2052 2.60868 12 3.56445C12.7948 2.60867 13.9928 2.00009 15.333 2ZM6 17C6 18.1046 6.89542 19 8 19H11V13H6V17ZM13 19H16C17.1046 19 18 18.1046 18 17V13H13V19ZM6 9C5.44771 9 5 9.44771 5 10C5 10.3689 5.19946 10.6928 5.50098 10.8672C5.64694 10.9516 5.81632 11 6 11H11V9H6ZM13 11H18C18.1836 11 18.353 10.9516 18.499 10.8672C18.8005 10.6928 19 10.3689 19 10C19 9.4477 18.5523 9 18 9H13V11ZM8.66699 4C8.2988 4 8 4.2988 8 4.66699C8.00017 5.95542 9.04462 6.99984 10.333 7H11V6.33301C10.9998 5.0446 9.95539 4.00017 8.66699 4ZM15.333 4C14.0446 4.00016 13.0002 5.04459 13 6.33301V7H13.667C14.9554 6.99984 15.9998 5.95541 16 4.66699C16 4.29881 15.7012 4 15.333 4Z" fill="black" style="fill:black;fill-opacity:1;"/>
</svg>
