<svg width="24" height="24" viewBox="0 0 24 24" fill="none" xmlns="http://www.w3.org/2000/svg">
<path fill-rule="evenodd" clip-rule="evenodd" d="M11.9997 4.42633C13.6162 3.14275 15.4711 2.75995 17.1686 3.13824C19.0964 3.56808 20.7314 4.96026 21.5104 6.90191C23.1146 10.9018 21.0166 16.5919 12.4889 21.3716C12.1852 21.5418 11.8141 21.5419 11.5104 21.3716C2.98316 16.5919 0.884843 10.9017 2.48895 6.90191C3.26787 4.96023 4.90298 3.56816 6.83075 3.13824C8.52829 2.75984 10.3831 3.14289 11.9997 4.42633ZM16.7341 5.09039C15.4961 4.81449 14.0254 5.13761 12.7116 6.47027C12.5237 6.66073 12.2673 6.76812 11.9997 6.76812C11.7323 6.76803 11.4756 6.66065 11.2878 6.47027C9.97386 5.13775 8.5033 4.81436 7.26532 5.09039C6.00268 5.37213 4.88688 6.29701 4.34539 7.64703C3.32988 10.1794 4.25435 14.836 11.9997 19.3443C19.7454 14.8359 20.6695 10.1794 19.654 7.64703C19.1124 6.29705 17.9967 5.37205 16.7341 5.09039Z" fill="black" style="fill:black;fill-opacity:1;"/>
</svg>
