<svg width="24" height="24" viewBox="0 0 24 24" fill="none" xmlns="http://www.w3.org/2000/svg">
<path d="M15.167 11.9234C15.9952 11.9236 16.667 12.5951 16.667 13.4234C16.6668 14.2516 15.9951 14.9233 15.167 14.9234C14.3386 14.9234 13.6671 14.2517 13.667 13.4234C13.667 12.595 14.3385 11.9234 15.167 11.9234Z" fill="black" style="fill:black;fill-opacity:1;"/>
<path fill-rule="evenodd" clip-rule="evenodd" d="M11.6298 1.76426C11.8744 1.71823 12.1255 1.71822 12.3701 1.76426L12.4921 1.7916L12.6425 1.8375C12.9869 1.96104 13.2808 2.18739 13.5136 2.3541L22.082 8.48789L22.1621 8.55235C22.542 8.88747 22.6146 9.46249 22.3134 9.8834C22.012 10.3043 21.4436 10.4215 21.0039 10.1695L20.9179 10.1148L20 9.45664V15.1998C20 16.0233 20.001 16.7022 19.956 17.2525C19.9158 17.744 19.8353 18.201 19.6504 18.6324L19.5644 18.816C19.2289 19.4744 18.7181 20.0255 18.0918 20.4098L17.8164 20.5641C17.3311 20.8113 16.8139 20.9097 16.2519 20.9557C15.7015 21.0006 15.0236 21.0006 14.2002 21.0006H9.79977C8.97633 21.0006 8.29837 21.0006 7.74801 20.9557C7.25615 20.9155 6.79889 20.8352 6.36715 20.65L6.18356 20.5641C5.52529 20.2286 4.97502 19.7178 4.59078 19.0914L4.43551 18.816C4.1884 18.3308 4.08983 17.8134 4.04391 17.2516C3.99898 16.7013 3.99996 16.023 3.99996 15.1998V9.45664L3.08199 10.1148C2.63301 10.436 2.00792 10.3322 1.68649 9.8834C1.36531 9.43442 1.46912 8.80935 1.91793 8.48789L10.4863 2.3541L10.7011 2.19981C10.9296 2.03939 11.2008 1.86959 11.5078 1.7916L11.6298 1.76426ZM11.9931 3.74277L11.6504 3.98008L5.99996 8.025V15.1998C5.99996 16.0562 6.0003 16.6394 6.03707 17.0895C6.07286 17.5271 6.13817 17.7514 6.21774 17.9078L6.29488 18.0455C6.48697 18.3588 6.76254 18.614 7.09176 18.7818L7.22457 18.8395C7.37412 18.8929 7.58263 18.9357 7.91109 18.9625C8.36112 18.9993 8.94339 19.0006 9.79977 19.0006H14.2002C15.0565 19.0006 15.6388 18.9993 16.0888 18.9625C16.5271 18.9267 16.7518 18.8615 16.9082 18.7818L17.0459 18.7047C17.3589 18.5126 17.6145 18.2369 17.7822 17.9078L17.8388 17.776C17.8924 17.6264 17.936 17.418 17.9629 17.0895C17.9996 16.6394 18 16.0562 18 15.1998V8.025L12.3496 3.98008C12.1714 3.85256 12.0774 3.78637 12.0068 3.74277C12.0046 3.74144 12.002 3.74008 12 3.73887C11.998 3.74007 11.9953 3.74145 11.9931 3.74277Z" fill="black" style="fill:black;fill-opacity:1;"/>
</svg>
