<svg width="24" height="24" viewBox="0 0 24 24" fill="none" xmlns="http://www.w3.org/2000/svg">
<path fill-rule="evenodd" clip-rule="evenodd" d="M6 14C7.65685 14 9 15.3431 9 17C9 18.6569 7.65685 20 6 20C4.34315 20 3 18.6569 3 17C3 15.3431 4.34315 14 6 14ZM6 16C5.44771 16 5 16.4477 5 17C5 17.5523 5.44771 18 6 18C6.55229 18 7 17.5523 7 17C7 16.4477 6.55229 16 6 16Z" fill="black" style="fill:black;fill-opacity:1;"/>
<path d="M20 16C20.5523 16 21 16.4477 21 17C21 17.5523 20.5523 18 20 18H13C12.4477 18 12 17.5523 12 17C12 16.4477 12.4477 16 13 16H20Z" fill="black" style="fill:black;fill-opacity:1;"/>
<path fill-rule="evenodd" clip-rule="evenodd" d="M6 4C7.65685 4 9 5.34315 9 7C9 8.65685 7.65685 10 6 10C4.34315 10 3 8.65685 3 7C3 5.34315 4.34315 4 6 4ZM6 6C5.44771 6 5 6.44771 5 7C5 7.55229 5.44771 8 6 8C6.55229 8 7 7.55229 7 7C7 6.44771 6.55229 6 6 6Z" fill="black" style="fill:black;fill-opacity:1;"/>
<path d="M20 6C20.5523 6 21 6.44772 21 7C21 7.55228 20.5523 8 20 8H13C12.4477 8 12 7.55228 12 7C12 6.44772 12.4477 6 13 6H20Z" fill="black" style="fill:black;fill-opacity:1;"/>
</svg>
