<svg width="24" height="24" viewBox="0 0 24 24" fill="none" xmlns="http://www.w3.org/2000/svg">
<path fill-rule="evenodd" clip-rule="evenodd" d="M11.9982 6.5C13.931 6.50013 15.4982 8.06708 15.4982 10C15.4982 11.9329 13.931 13.4999 11.9982 13.5C10.0652 13.5 8.49817 11.933 8.49817 10C8.49817 8.067 10.0652 6.5 11.9982 6.5ZM11.9982 8.5C11.1698 8.5 10.4982 9.17158 10.4982 10C10.4982 10.8284 11.1698 11.5 11.9982 11.5C12.8265 11.4999 13.4982 10.8283 13.4982 10C13.4982 9.17166 12.8265 8.50013 11.9982 8.5Z" fill="black" style="fill:black;fill-opacity:1;"/>
<path fill-rule="evenodd" clip-rule="evenodd" d="M12.0001 2C16.4184 2 20.0001 5.58173 20.0001 10C20.0001 12.2654 19.0822 14.3698 17.9542 16.1113C16.8217 17.8598 15.4282 19.3185 14.3585 20.3125C13.0154 21.5604 10.9849 21.5614 9.64172 20.3135C8.57202 19.3195 7.1785 17.8598 6.04602 16.1113C4.91806 14.3698 4.00012 12.2654 4.00012 10C4.00012 5.58173 7.58185 2 12.0001 2ZM12.0001 4C8.68642 4 6.00012 6.68629 6.00012 10C6.00012 11.7327 6.70813 13.4563 7.72375 15.0244C8.7346 16.5851 10.0019 17.9174 11.0031 18.8477L11.1144 18.9414C11.6833 19.3803 12.4574 19.3491 12.9972 18.8477L13.3839 18.4805C14.3109 17.5809 15.3919 16.3901 16.2765 15.0244C17.2921 13.4563 18.0001 11.7327 18.0001 10C18.0001 6.68629 15.3138 4 12.0001 4Z" fill="black" style="fill:black;fill-opacity:1;"/>
</svg>
