<svg width="24" height="24" viewBox="0 0 24 24" fill="none" xmlns="http://www.w3.org/2000/svg">
<path d="M20 12C20 7.58172 16.4183 4 12 4C7.58172 4 4 7.58172 4 12C4 16.4183 7.58172 20 12 20C16.4183 20 20 16.4183 20 12ZM22 12C22 17.5229 17.5229 22 12 22C6.47716 22 2 17.5229 2 12C2 6.47716 6.47716 2 12 2C17.5229 2 22 6.47716 22 12Z" fill="black" style="fill:black;fill-opacity:1;"/>
<path d="M9 9.5C9 7.567 10.567 6 12.5 6C13.392 6 14.2077 6.33473 14.8252 6.88379L14.9453 6.99609L15.0156 7.07129C15.3404 7.4603 15.3237 8.03985 14.9619 8.41016C14.6001 8.78052 14.0215 8.80994 13.625 8.49414L13.5479 8.42676L13.4414 8.33203C13.1836 8.12369 12.857 8 12.5 8C11.6716 8 11 8.67158 11 9.5C11 9.84568 11.0964 10.1614 11.251 10.498C11.3274 10.6645 11.4116 10.822 11.5059 11H14C14.5523 11 15 11.4477 15 12C15 12.5523 14.5523 13 14 13H11.8662L10.7227 15H14C14.5523 15 15 15.4477 15 16C15 16.5523 14.5523 17 14 17H9C8.64353 17 8.31369 16.8103 8.13477 16.502C7.95591 16.1937 7.955 15.8134 8.13184 15.5039L9.5625 13H9C8.44772 13 8 12.5523 8 12C8 11.4477 8.44772 11 9 11H9.29297C9.13061 10.5794 9 10.079 9 9.5Z" fill="black" style="fill:black;fill-opacity:1;"/>
</svg>
