<svg width="24" height="24" viewBox="0 0 24 24" fill="none" xmlns="http://www.w3.org/2000/svg">
<path d="M18.3691 12.2246C18.7619 11.9043 19.3409 11.9269 19.707 12.293L22.707 15.293L22.7754 15.3691C23.0957 15.7619 23.0731 16.3409 22.707 16.707C22.3409 17.0731 21.7619 17.0957 21.3691 16.7754L21.293 16.707L20 15.4141V21C20 21.5523 19.5523 22 19 22C18.4477 22 18 21.5523 18 21V15.4141L16.707 16.707C16.3165 17.0976 15.6835 17.0976 15.293 16.707C14.9024 16.3165 14.9024 15.6835 15.293 15.293L18.293 12.293L18.3691 12.2246Z" fill="black" style="fill:black;fill-opacity:1;"/>
<path d="M19 4C21.2092 4 23 5.79088 23 8V11C23 11.5523 22.5523 12 22 12C21.4477 12 21 11.5523 21 11V8C21 6.89542 20.1046 6 19 6H5C3.89543 6 3 6.89543 3 8V16C3 17.1046 3.89542 18 5 18H13C13.5523 18 14 18.4477 14 19C14 19.5523 13.5523 20 13 20H5C2.79088 20 1 18.2092 1 16V8C1 5.79087 2.79087 4 5 4H19Z" fill="black" style="fill:black;fill-opacity:1;"/>
<path fill-rule="evenodd" clip-rule="evenodd" d="M12 9C13.6569 9 15 10.3431 15 12C15 13.6569 13.6569 15 12 15C10.3431 15 9 13.6569 9 12C9 10.3431 10.3431 9 12 9ZM12 11C11.4477 11 11 11.4477 11 12C11 12.5523 11.4477 13 12 13C12.5523 13 13 12.5523 13 12C13 11.4477 12.5523 11 12 11Z" fill="black" style="fill:black;fill-opacity:1;"/>
<path d="M6 7C6.55228 7 7 7.44772 7 8C7 8.55228 6.55228 9 6 9H5C4.44772 9 4 8.55228 4 8C4 7.44772 4.44772 7 5 7H6Z" fill="black" style="fill:black;fill-opacity:1;"/>
</svg>
