<svg width="13" height="13" viewBox="0 0 13 13" fill="none" xmlns="http://www.w3.org/2000/svg">
    <path d="M10.8105 0.310547L6.31055 4.81055L1.81055 0.310547C1.61163 0.111635 1.34185 -0.000112319 1.06055 -0.000112783C0.779242 -0.000112593 0.509459 0.111635 0.310547 0.310547C0.111634 0.509459 -0.000113341 0.779243 -0.000113531 1.06055C-0.000113404 1.34185 0.111634 1.61163 0.310546 1.81055L4.81055 6.31055L0.310546 10.8105C0.111634 11.0095 -0.000113404 11.2792 -0.000113531 11.5605C-0.000113341 11.8419 0.111634 12.1116 0.310547 12.3105C0.509459 12.5095 0.779242 12.6212 1.06055 12.6212C1.34185 12.6212 1.61163 12.5095 1.81055 12.3105L6.31055 7.81055L10.8105 12.3105C11.0095 12.5095 11.2792 12.6212 11.5605 12.6212C11.8419 12.6212 12.1116 12.5095 12.3105 12.3105C12.5095 12.1116 12.6212 11.8419 12.6212 11.5605C12.6212 11.2792 12.5095 11.0095 12.3105 10.8105L7.81055 6.31055L12.3105 1.81055C12.5095 1.61164 12.6212 1.34185 12.6212 1.06055C12.6212 0.779242 12.5095 0.509459 12.3105 0.310547C12.1116 0.111635 11.8419 -0.000112783 11.5605 -0.000113457C11.2792 -0.000113794 11.0095 0.111635 10.8105 0.310547Z" fill="#333333"/>
</svg>
