<svg width="19" height="28" viewBox="0 0 19 28" fill="none" xmlns="http://www.w3.org/2000/svg">
    <path d="M9.5 15.9388V26.2721M9.5 25.1292C9.5 21.3421 12.57 18.2721 16.3572 18.2721C16.7181 18.2721 17.0725 18.3 17.4184 18.3537C17.4721 18.6996 17.5 19.054 17.5 19.4149C17.5 23.2021 14.43 26.2721 10.6428 26.2721C10.2819 26.2721 9.92747 26.2442 9.5816 26.1905C9.52787 25.8446 9.5 25.4902 9.5 25.1292ZM9.5 25.1292C9.5 21.3421 6.42995 18.2721 2.64285 18.2721C2.28192 18.2721 1.92749 18.3 1.58163 18.3537C1.52788 18.6996 1.5 19.054 1.5 19.4149C1.5 23.2021 4.57005 26.2721 8.3572 26.2721C8.71813 26.2721 9.07253 26.2442 9.4184 26.1905C9.47213 25.8446 9.5 25.4902 9.5 25.1292ZM12.1672 3.07254L10.7493 1.93827C10.0189 1.35391 8.98107 1.35391 8.25067 1.93827L6.83277 3.07254C6.31809 3.48427 5.62177 3.58746 5.00981 3.34268L3.53509 2.75279C3.03931 2.55447 2.5 2.9196 2.5 3.45358V8.60542C2.5 12.4714 5.63401 15.6054 9.5 15.6054C13.366 15.6054 16.5 12.4714 16.5 8.60542V3.45358C16.5 2.9196 15.9607 2.55447 15.4649 2.75279L13.9901 3.34268C13.3783 3.58746 12.6819 3.48427 12.1672 3.07254Z" stroke="black" stroke-width="3" stroke-linecap="round" stroke-linejoin="round"/>
</svg>
