<svg width="24" height="24" viewBox="0 0 24 24" fill="none" xmlns="http://www.w3.org/2000/svg">
<path d="M20.4257 10.1483C20.7186 9.85536 21.1934 9.85536 21.4863 10.1483L23.6074 12.2693C23.9003 12.5622 23.9003 13.037 23.6074 13.3299C23.3145 13.6227 22.8397 13.6228 22.5468 13.3299L21.9687 12.7518C21.8282 14.6129 21.1716 16.4056 20.0585 17.9207C18.7407 19.7143 16.8623 21.0173 14.7206 21.6229C12.5789 22.2284 10.2962 22.1016 8.23432 21.2635C6.17241 20.4253 4.44873 18.9231 3.33686 16.9949C3.06132 16.5166 3.22576 15.9055 3.70404 15.6297C4.18231 15.354 4.79329 15.5179 5.06928 15.9959C5.95876 17.5384 7.33777 18.7404 8.98725 19.4109C10.6368 20.0815 12.4633 20.1825 14.1767 19.6981C15.89 19.2136 17.393 18.171 18.4472 16.7361C19.3123 15.5585 19.8337 14.1716 19.9658 12.7283L19.3652 13.3299C19.0723 13.6228 18.5975 13.6227 18.3046 13.3299C18.0117 13.037 18.0117 12.5622 18.3046 12.2693L20.4257 10.1483Z" fill="black" style="fill:black;fill-opacity:1;"/>
<path fill-rule="evenodd" clip-rule="evenodd" d="M11.9999 6.24982C13.1652 6.24982 14.2521 6.41267 15.0742 6.69806C15.4815 6.83951 15.8649 7.02527 16.1611 7.26837C16.452 7.50717 16.7498 7.88166 16.7499 8.38849V15.6111C16.7499 16.118 16.452 16.4925 16.1611 16.7313C15.8649 16.9744 15.4815 17.1601 15.0742 17.3016C14.2521 17.587 13.1652 17.7498 11.9999 17.7498C10.8347 17.7498 9.74776 17.587 8.92572 17.3016C8.51835 17.1601 8.13504 16.9744 7.83881 16.7313C7.54791 16.4925 7.25003 16.118 7.24994 15.6111V8.38849C7.25006 7.88166 7.54792 7.50717 7.83881 7.26837C8.13503 7.0253 8.51838 6.8395 8.92572 6.69806C9.74776 6.41268 10.8347 6.24982 11.9999 6.24982ZM15.0742 14.8016C14.2521 15.087 13.1652 15.2498 11.9999 15.2498C10.8347 15.2498 9.74776 15.087 8.92572 14.8016C8.8663 14.7809 8.80814 14.7567 8.74994 14.7342V15.532C8.75969 15.5418 8.7712 15.5567 8.78998 15.5721C8.89855 15.6612 9.10155 15.7747 9.41791 15.8846C10.0436 16.1017 10.9564 16.2498 11.9999 16.2498C13.0435 16.2498 13.9563 16.1017 14.582 15.8846C14.8983 15.7747 15.1014 15.6612 15.2099 15.5721C15.2286 15.5567 15.2402 15.5418 15.2499 15.532V14.7342C15.1918 14.7567 15.1336 14.7809 15.0742 14.8016ZM15.0742 12.4402C14.2521 12.7257 13.1652 12.8885 11.9999 12.8885C10.8346 12.8885 9.74777 12.7257 8.92572 12.4402C8.86628 12.4196 8.80817 12.3954 8.74994 12.3729V13.032C8.75969 13.0418 8.7712 13.0567 8.78998 13.0721C8.89855 13.1612 9.10155 13.2747 9.41791 13.3846C10.0436 13.6017 10.9564 13.7498 11.9999 13.7498C13.0435 13.7498 13.9563 13.6017 14.582 13.3846C14.8983 13.2747 15.1014 13.1612 15.2099 13.0721C15.2286 13.0567 15.2402 13.0418 15.2499 13.032V12.3729C15.1917 12.3954 15.1336 12.4196 15.0742 12.4402ZM15.0742 10.0789C14.2521 10.3643 13.1653 10.5272 11.9999 10.5272C10.8346 10.5272 9.74778 10.3643 8.92572 10.0789C8.86625 10.0583 8.80819 10.0341 8.74994 10.0115V10.6707C8.75968 10.6805 8.77119 10.6953 8.78998 10.7108C8.89854 10.7999 9.10155 10.9134 9.41791 11.0233C10.0436 11.2404 10.9564 11.3885 11.9999 11.3885C13.0435 11.3885 13.9563 11.2404 14.582 11.0233C14.8983 10.9134 15.1014 10.7999 15.2099 10.7108C15.2287 10.6953 15.2402 10.6805 15.2499 10.6707V10.0115C15.1917 10.0341 15.1336 10.0583 15.0742 10.0789ZM11.9999 7.74982C10.9564 7.74982 10.0435 7.8979 9.41791 8.11505C9.14781 8.20884 8.96116 8.30678 8.84467 8.38849C8.96114 8.47023 9.1476 8.56807 9.41791 8.66193C10.0436 8.87912 10.9563 9.02716 11.9999 9.02716C13.0436 9.02716 13.9563 8.87912 14.582 8.66193C14.8517 8.56825 15.0377 8.47013 15.1542 8.38849C15.0377 8.30687 14.8516 8.20868 14.582 8.11505C13.9563 7.89789 13.0435 7.74982 11.9999 7.74982Z" fill="black" style="fill:black;fill-opacity:1;"/>
<path d="M9.27924 2.37677C11.421 1.77126 13.7037 1.89801 15.7656 2.73615C17.8274 3.5743 19.5512 5.07659 20.663 7.0047C20.9386 7.48305 20.7741 8.09409 20.2958 8.36994C19.8176 8.6457 19.2066 8.48182 18.9306 8.00372C18.0411 6.46127 16.6621 5.25921 15.0126 4.58868C13.3631 3.91818 11.5366 3.81716 9.82319 4.30158C8.10986 4.78604 6.60688 5.82862 5.55268 7.26349C4.68777 8.44083 4.16533 9.8274 4.03315 11.2703L4.63471 10.6697C4.92756 10.3769 5.40235 10.377 5.69526 10.6697C5.98815 10.9626 5.98815 11.4374 5.69526 11.7303L3.57416 13.8514C3.28127 14.1443 2.80651 14.1443 2.51362 13.8514L0.392521 11.7303C0.0996283 11.4374 0.0996283 10.9626 0.392521 10.6697C0.685431 10.377 1.16024 10.3769 1.45307 10.6697L2.03022 11.2469C2.17085 9.38612 2.82843 7.59374 3.94135 6.07892C5.25915 4.28538 7.13756 2.98229 9.27924 2.37677Z" fill="black" style="fill:black;fill-opacity:1;"/>
</svg>
