<svg width="16" height="16" viewBox="0 0 16 16" fill="none" xmlns="http://www.w3.org/2000/svg">
    <path fill-rule="evenodd" clip-rule="evenodd" d="M11.9812 2.03031C13.1665 1.76341 14.2357 2.83266 13.9689 4.01794L13.9376 4.13708L10.9526 14.0869C10.4892 15.6317 8.35067 15.6664 7.80153 14.2119L7.75336 14.0661L6.51117 9.71715C6.48345 9.62031 6.41354 9.54158 6.32237 9.50231L6.282 9.48799L1.93304 8.2458C0.332365 7.78848 0.317195 5.52507 1.91156 5.04658L11.8621 2.06156L11.9812 2.03031ZM12.2924 3.32783L12.2455 3.3389L2.29502 6.32393C1.97614 6.41959 1.97893 6.87236 2.29893 6.9639L6.64854 8.20609L6.75075 8.23929C7.25488 8.41923 7.64469 8.83179 7.79307 9.35062L9.03526 13.7002L9.05674 13.7562C9.18217 14.0192 9.58554 14.0032 9.67523 13.7041L12.6603 3.75361L12.6713 3.70609C12.7044 3.48662 12.5119 3.29425 12.2924 3.32783Z" fill="black"/>
</svg>
