<svg width="30" height="27" viewBox="0 0 30 27" fill="none" xmlns="http://www.w3.org/2000/svg">
    <path d="M1.5 1.5H2.19372C3.14709 1.5 3.96792 2.17292 4.15489 3.10777L6.73793 16.0229C6.98723 17.2695 8.08167 18.1667 9.35281 18.1667H23.0029C24.264 18.1667 25.3527 17.2833 25.6124 16.0493L27.4948 7.10801C27.6693 6.27928 27.0369 5.5 26.1901 5.5H5.16667M11.5 23.1667C11.5 24.0872 10.7538 24.8333 9.83333 24.8333C8.91285 24.8333 8.16667 24.0872 8.16667 23.1667C8.16667 22.2461 8.91285 21.5 9.83333 21.5C10.7538 21.5 11.5 22.2461 11.5 23.1667ZM23.5 23.1667C23.5 24.0872 22.7539 24.8333 21.8333 24.8333C20.9128 24.8333 20.1667 24.0872 20.1667 23.1667C20.1667 22.2461 20.9128 21.5 21.8333 21.5C22.7539 21.5 23.5 22.2461 23.5 23.1667Z" stroke="black" stroke-width="3" stroke-linecap="round" stroke-linejoin="round"/>
</svg>
