<svg width="16" height="16" viewBox="0 0 16 16" fill="none" xmlns="http://www.w3.org/2000/svg">
    <path d="M14.6382 10.2101C14.8643 10.8498 14.5974 11.6436 13.838 11.9198L8.45522 13.8774C8.16106 13.9844 7.83856 13.9844 7.54441 13.8774L2.1616 11.9198C1.40232 11.6436 1.13536 10.8498 1.36147 10.2101L8.00014 12.6242L14.6382 10.2101Z" fill="black"/>
    <path d="M14.6382 7.54346C14.8643 8.18311 14.5974 8.97694 13.838 9.25309L8.45522 11.2108C8.16106 11.3177 7.83856 11.3177 7.54441 11.2108L2.1616 9.25309C1.40232 8.97692 1.13536 8.18309 1.36147 7.54346L8.00014 9.95752L14.6382 7.54346Z" fill="black"/>
    <path fill-rule="evenodd" clip-rule="evenodd" d="M7.54441 2.12288C7.83854 2.016 8.16108 2.01601 8.45522 2.12288L13.838 4.08057C15.0083 4.50612 15.0082 6.16086 13.838 6.58643L8.45522 8.54411C8.16107 8.65102 7.83855 8.65103 7.54441 8.54411L2.1616 6.58643C0.991473 6.16084 0.991451 4.50614 2.1616 4.08057L7.54441 2.12288ZM2.61733 5.33382L8.00014 7.29085L13.3823 5.33382L8.00014 3.37614L2.61733 5.33382Z" fill="black"/>
</svg>
