<svg width="24" height="24" viewBox="0 0 24 24" fill="none" xmlns="http://www.w3.org/2000/svg">
<path fill-rule="evenodd" clip-rule="evenodd" d="M17.399 3C19.3894 3.00038 21.0774 4.46429 21.359 6.43457L21.5211 7.57227L21.5465 7.79102C21.6201 8.64077 21.4112 9.44942 21.0006 10.127V17C21.0006 19.209 19.2096 20.9998 17.0006 21H14.0006C13.4483 21 13.0006 20.5523 13.0006 20V17C13.0006 16.4478 12.5527 16.0002 12.0006 16C11.4483 16 11.0006 16.4477 11.0006 17V20C11.0006 20.5521 10.5527 20.9998 10.0006 21H7.00059C4.79147 21 3.00059 19.2092 3.00059 17V10.127C2.55468 9.39146 2.34733 8.50156 2.48008 7.57227L2.64317 6.43457L2.67344 6.25098C3.03031 4.37363 4.67479 3 6.60313 3H17.399ZM14.8209 10.7402C14.129 11.5107 13.1258 11.9998 12.0006 12C10.8755 12 9.87163 11.5113 9.1793 10.7412C8.46829 11.5167 7.44796 11.9997 6.3209 12C5.85541 12 5.41131 11.917 5.00059 11.7686V17C5.00059 18.1046 5.89602 19 7.00059 19H9.00059V17C9.00059 15.3431 10.3437 14 12.0006 14C13.6573 14.0002 15.0006 15.3433 15.0006 17V19H17.0006C18.105 18.9998 19.0006 18.1045 19.0006 17V11.7686C18.5901 11.917 18.1466 11.9999 17.6813 12C16.5534 12 15.5321 11.5164 14.8209 10.7402ZM6.60313 5C5.6702 5 4.87032 5.64315 4.65782 6.53516L4.62266 6.7168L4.46055 7.85547C4.2989 8.98736 5.17753 10 6.3209 10C7.30626 9.99955 8.12472 9.23783 8.19493 8.25488L8.21348 7.98828C8.21448 7.97107 8.21518 7.95378 8.21641 7.93652L8.42637 5H6.60313ZM10.2125 8.06641L10.2115 8.0791C10.1375 9.11711 10.9599 10 12.0006 10C12.9759 9.99955 13.7596 9.22364 13.7926 8.27148L13.7887 8.0791L13.569 5H10.4322L10.2125 8.06641ZM15.6441 5.99316L15.8072 8.25488L15.8287 8.43652C15.9801 9.33038 16.7571 10 17.6813 10C18.7528 9.99972 19.5915 9.11003 19.5592 8.06641L19.5416 7.85547L19.3785 6.7168C19.2376 5.7319 18.3939 5.00038 17.399 5H15.5738L15.6441 5.99316Z" fill="black" style="fill:black;fill-opacity:1;"/>
</svg>
