<svg width="20" height="20" viewBox="0 0 20 20" fill="none" xmlns="http://www.w3.org/2000/svg">
    <path d="M17.7082 8.95825V14.3749C17.7082 15.2954 16.962 16.0416 16.0415 16.0416H3.95817C3.0377 16.0416 2.2915 15.2954 2.2915 14.3749V8.95825M17.7082 8.95825H15.6248M17.7082 8.95825V5.62492C17.7082 4.70444 16.962 3.95825 16.0415 3.95825H3.95817C3.0377 3.95825 2.2915 4.70444 2.2915 5.62492V8.95825M2.2915 8.95825H4.37484M15.6248 8.95825H14.0567C13.7211 8.95825 13.3933 9.05958 13.1162 9.249L12.1381 9.9175C11.861 10.1069 11.5333 10.2083 11.1976 10.2083H8.80209C8.46642 10.2083 8.13863 10.1069 7.86155 9.9175L6.8835 9.249C6.60641 9.05958 6.2786 8.95825 5.94298 8.95825H4.37484M15.6248 8.95825V6.45825C15.6248 6.22814 15.4383 6.04159 15.2082 6.04159H4.7915C4.56139 6.04159 4.37484 6.22814 4.37484 6.45825V8.95825" stroke="black" stroke-width="1.5" stroke-linejoin="round"/>
</svg>
