<svg width="24" height="24" viewBox="0 0 24 24" fill="none" xmlns="http://www.w3.org/2000/svg">
<path d="M19 15C19.5523 15 20 15.4477 20 16C20 16.5523 19.5523 17 19 17H18C17.4477 17 17 16.5523 17 16C17 15.4477 17.4477 15 18 15H19Z" fill="black" style="fill:black;fill-opacity:1;"/>
<path fill-rule="evenodd" clip-rule="evenodd" d="M12 9C13.6569 9 15 10.3431 15 12C15 13.6569 13.6569 15 12 15C10.3431 15 9 13.6569 9 12C9 10.3431 10.3431 9 12 9ZM12 11C11.4477 11 11 11.4477 11 12C11 12.5523 11.4477 13 12 13C12.5523 13 13 12.5523 13 12C13 11.4477 12.5523 11 12 11Z" fill="black" style="fill:black;fill-opacity:1;"/>
<path d="M6 7C6.55228 7 7 7.44772 7 8C7 8.55228 6.55228 9 6 9H5C4.44772 9 4 8.55228 4 8C4 7.44772 4.44772 7 5 7H6Z" fill="black" style="fill:black;fill-opacity:1;"/>
<path fill-rule="evenodd" clip-rule="evenodd" d="M19 4C21.2092 4 23 5.79088 23 8V16C23 18.2092 21.2092 20 19 20H5C2.79088 20 1 18.2092 1 16V8C1 5.79087 2.79087 4 5 4H19ZM5 6C3.89543 6 3 6.89543 3 8V16C3 17.1046 3.89542 18 5 18H19C20.1046 18 21 17.1046 21 16V8C21 6.89542 20.1046 6 19 6H5Z" fill="black" style="fill:black;fill-opacity:1;"/>
</svg>
