<svg width="24" height="24" viewBox="0 0 24 24" fill="none" xmlns="http://www.w3.org/2000/svg">
<path d="M12.0206 17.5011L12.1105 17.5059H12.1193L12.128 17.5069C12.7582 17.5713 13.25 18.1028 13.2501 18.7501C13.2501 19.4404 12.6904 20 12.0001 20.0001C11.3098 20.0001 10.7501 19.4404 10.7501 18.7501C10.7502 18.0598 11.3099 17.5001 12.0001 17.5001H12.0099L12.0206 17.5011Z" fill="black" style="fill:black;fill-opacity:1;"/>
<path d="M6.46106 12.2833C9.75339 9.93671 14.2479 9.93665 17.5402 12.2833L17.8654 12.5255L17.9425 12.5929C18.3086 12.9433 18.3565 13.5215 18.0382 13.9298C17.7198 14.3377 17.1478 14.4317 16.7189 14.1622L16.6349 14.1026L16.379 13.9122C13.6946 11.9992 9.98255 12.0626 7.36633 14.1026L7.28234 14.1622C6.85338 14.4317 6.28146 14.3377 5.96301 13.9298C5.6234 13.4943 5.70037 12.8651 6.13586 12.5255L6.46106 12.2833Z" fill="black" style="fill:black;fill-opacity:1;"/>
<path d="M2.38488 7.28427C7.99545 2.90528 16.0048 2.90521 21.6154 7.28427C22.0507 7.62405 22.1279 8.2532 21.7882 8.68856C21.4484 9.12354 20.8201 9.20098 20.3849 8.86142C15.4976 5.04672 8.50271 5.04679 3.61535 8.86142C3.18012 9.20098 2.55187 9.12354 2.21203 8.68856C1.87225 8.2532 1.94953 7.62407 2.38488 7.28427Z" fill="black" style="fill:black;fill-opacity:1;"/>
</svg>
